<svg id="Warstwa_1" data-name="Warstwa 1" xmlns="http://www.w3.org/2000/svg" viewBox="0 0 50 50"><defs><style>.cls-1{fill:#bbb410;}</style></defs><title>ikona</title><path class="cls-1" d="M1.86,20.76V33.4A5.54,5.54,0,0,0,6.7,38.89v5.51a1.11,1.11,0,0,0,1.89.78l6.25-6.25H27.89a5.54,5.54,0,0,0,5.53-5.53V20.76a5.54,5.54,0,0,0-5.53-5.54H7.39A5.54,5.54,0,0,0,1.86,20.76Zm2.21,0a3.32,3.32,0,0,1,3.32-3.32h20.5a3.32,3.32,0,0,1,3.32,3.32V33.4a3.32,3.32,0,0,1-3.32,3.32H14.38a1.11,1.11,0,0,0-.78.32L8.91,41.73v-3.9A1.11,1.11,0,0,0,7.8,36.72H7.39A3.32,3.32,0,0,1,4.07,33.4Z"/><path class="cls-1" d="M8.39,24.17A1.11,1.11,0,0,0,9.5,25.28h16.3a1.11,1.11,0,1,0,0-2.21H9.5A1.11,1.11,0,0,0,8.39,24.17Z"/><path class="cls-1" d="M8.39,30.37A1.11,1.11,0,0,0,9.5,31.48h16.3a1.11,1.11,0,1,0,0-2.21H9.5A1.11,1.11,0,0,0,8.39,30.37Z"/><path class="cls-1" d="M1.86,20.76V33.4A5.54,5.54,0,0,0,6.7,38.89v5.51a1.11,1.11,0,0,0,1.89.78l6.25-6.25H27.89a5.54,5.54,0,0,0,5.53-5.53V20.76a5.54,5.54,0,0,0-5.53-5.54H7.39A5.54,5.54,0,0,0,1.86,20.76Zm2.21,0a3.32,3.32,0,0,1,3.32-3.32h20.5a3.32,3.32,0,0,1,3.32,3.32V33.4a3.32,3.32,0,0,1-3.32,3.32H14.38a1.11,1.11,0,0,0-.78.32L8.91,41.73v-3.9A1.11,1.11,0,0,0,7.8,36.72H7.39A3.32,3.32,0,0,1,4.07,33.4Z"/><path class="cls-1" d="M48.12,9.08A1.29,1.29,0,0,0,47,7.81a41.86,41.86,0,0,1-8.73-2.16,64.25,64.25,0,0,1-9.38-4.41,1.19,1.19,0,0,0-1.27,0,62.42,62.42,0,0,1-9.36,4.41,42.25,42.25,0,0,1-8.7,2.16A1.39,1.39,0,0,0,8.43,9.08a67,67,0,0,0,.26,7.83h2.63A63.15,63.15,0,0,1,11,10.23,44.37,44.37,0,0,0,19.29,8a68.66,68.66,0,0,0,9-4.15,68.47,68.47,0,0,0,9,4.15,44.59,44.59,0,0,0,8.28,2.21q.14,16.5-7.39,26.91a33.55,33.55,0,0,1-9.85,9,33.22,33.22,0,0,1-9.85-9l-.07-.1H15.23q.52.81,1.08,1.58A35.26,35.26,0,0,0,27.64,48.75a1.25,1.25,0,0,0,1.31,0A36.12,36.12,0,0,0,40.24,38.62Q48.54,27.14,48.12,9.08Z"/></svg>