<?xml version="1.0" encoding="utf-8"?>
<!-- Generator: Adobe Illustrator 21.0.0, SVG Export Plug-In . SVG Version: 6.00 Build 0)  -->
<svg version="1.1" id="Warstwa_1" xmlns="http://www.w3.org/2000/svg" xmlns:xlink="http://www.w3.org/1999/xlink" x="0px" y="0px"
	 viewBox="0 0 60 60" style="enable-background:new 0 0 60 60;" xml:space="preserve">
<style type="text/css">
	.st0{fill:#BBB32B;}
	.st1{fill:#9D9825;}
	.st2{fill:#FFFFFF;}
</style>
<path class="st0" d="M14.8,55.6v-4.2h-4.2V4.9h36.5v12.4l4.2,4.2v34.2H14.8z M49.1,53.3V23H37.4V11.3H17.1v42.1H49.1z M14.8,49.2V9
	H39l6,6V7.1H12.9v42.1H14.8z M47.5,20.7l-7.9-7.9v7.9H47.5z M22.6,48c-0.6,0-1.1-0.5-1.1-1.1s0.5-1.1,1.1-1.1h20.9
	c0.6,0,1.1,0.5,1.1,1.1S44.1,48,43.5,48H22.6z M22.6,41.4c-0.6,0-1.1-0.5-1.1-1.1s0.5-1.1,1.1-1.1h20.9c0.6,0,1.1,0.5,1.1,1.1
	s-0.5,1.1-1.1,1.1H22.6z M22.6,34.7c-0.6,0-1.1-0.5-1.1-1.1s0.5-1.1,1.1-1.1h20.9c0.6,0,1.1,0.5,1.1,1.1s-0.5,1.1-1.1,1.1H22.6z
	 M22.6,28c-0.6,0-1.1-0.5-1.1-1.1c0-0.6,0.5-1.1,1.1-1.1h20.9c0.6,0,1.1,0.5,1.1,1.1c0,0.6-0.5,1.1-1.1,1.1H22.6z M22.6,21.3
	c-0.6,0-1.1-0.5-1.1-1.1c0-0.6,0.5-1.1,1.1-1.1H31c0.6,0,1.1,0.5,1.1,1.1c0,0.6-0.5,1.1-1.1,1.1H22.6z"/>
</svg>
