<svg id="Warstwa_1" data-name="Warstwa 1" xmlns="http://www.w3.org/2000/svg" viewBox="0 0 50 50"><defs><style>.cls-1{fill:#bbb410;}</style></defs><title>ikona</title><path class="cls-1" d="M22.56,49.63a.93.93,0,0,1,0-1.86h4.88a.93.93,0,0,1,0,1.86Zm-1-3a.93.93,0,0,1,0-1.86h6.84a.93.93,0,1,1,0,1.86Zm-1-3a.93.93,0,1,1,0-1.86H29.4a.93.93,0,1,1,0,1.86Zm0-3.28a.93.93,0,0,1-.93-.93c0-2.39-.62-3.13-2.1-4.76l-.12-.13A45.92,45.92,0,0,1,14,30.35a13.62,13.62,0,0,1-1.59-13.25l0,0a13.63,13.63,0,0,1,7.26-7.3h0l.11,0A13.63,13.63,0,0,1,36,30.35a47.46,47.46,0,0,1-3.39,4.11v0c-1.57,1.74-2.22,2.45-2.22,4.93a.93.93,0,0,1-.93.93Zm7.95-1.86c.16-2.46,1-3.41,2.68-5.24a45.49,45.49,0,0,0,3.28-4,11.78,11.78,0,0,0-14-17.82l-.17.07a11.86,11.86,0,0,0-6.19,6.27v0a11.76,11.76,0,0,0,1.37,11.44,44.1,44.1,0,0,0,3.32,4l.13.14h0c1.59,1.74,2.41,2.69,2.57,5.08Zm-2.09-1.56a.93.93,0,0,1-.93-.93,41.62,41.62,0,0,1,.56-8.09,21.46,21.46,0,0,1,1.58-4.82,2.65,2.65,0,0,1-.87.16,2.29,2.29,0,0,1-1.47-.58L25,22.37l-.34.28a2.29,2.29,0,0,1-1.47.58,2.65,2.65,0,0,1-.87-.16A21.46,21.46,0,0,1,23.9,27.9,41.6,41.6,0,0,1,24.46,36a.93.93,0,1,1-1.85,0,39.91,39.91,0,0,0-.53-7.73,22.06,22.06,0,0,0-2.58-6.63h0l0-.07h0l0-.08h0a.93.93,0,0,1,1.17-1.16,10,10,0,0,1,1.43.62l0,0a2.82,2.82,0,0,0,1.08.39.5.5,0,0,0,.33-.11l.93-.76a.93.93,0,0,1,1.19,0l.91.74a.5.5,0,0,0,.33.11,2.92,2.92,0,0,0,1.09-.39l0,0a9.87,9.87,0,0,1,1.43-.62.93.93,0,0,1,1.06,1.38,22,22,0,0,0-2.55,6.58A39.85,39.85,0,0,0,27.39,36,.93.93,0,0,1,26.47,36.92ZM39.94,14.29a.93.93,0,0,1-.46-1.73L42,11.09a.93.93,0,0,1,1.36,1,.92.92,0,0,1-.43.56L40.4,14.17a.93.93,0,0,1-.46.12Zm-29.88,0a.92.92,0,0,1-.46-.12L7.06,12.7A.93.93,0,0,1,7.52,11,.93.93,0,0,1,8,11.1l2.54,1.46a.93.93,0,0,1-.46,1.73ZM33.62,8a.93.93,0,0,1-.8-1.39L34.29,4A.93.93,0,0,1,35.9,5L34.43,7.51a.93.93,0,0,1-.8.46ZM16.38,8a.93.93,0,0,1-.8-.46L14.11,5a.93.93,0,0,1,.34-1.26A.93.93,0,0,1,15.71,4l1.46,2.54A.93.93,0,0,1,16.38,8ZM25,5.67a.93.93,0,0,1-.93-.93V1.81a.93.93,0,0,1,1.86,0V4.74A.93.93,0,0,1,25,5.67Z"/></svg>