<svg id="Warstwa_1" data-name="Warstwa 1" xmlns="http://www.w3.org/2000/svg" viewBox="0 0 50 50"><defs><style>.cls-1{fill:#bbb410;}</style></defs><title>ikona</title><path class="cls-1" d="M44.83,9.18a1.29,1.29,0,0,0-1.1-1.27A41.83,41.83,0,0,1,35,5.76a64.19,64.19,0,0,1-9.38-4.41,1.19,1.19,0,0,0-1.27,0A62.36,62.36,0,0,1,15,5.76a42.21,42.21,0,0,1-8.7,2.16A1.39,1.39,0,0,0,5.17,9.18q-.42,18,7.88,29.51A35.23,35.23,0,0,0,24.37,48.81a1.25,1.25,0,0,0,1.31,0A36.09,36.09,0,0,0,37,38.69Q45.25,27.23,44.83,9.18Zm-10,28a33.52,33.52,0,0,1-9.84,9,33.19,33.19,0,0,1-9.84-9Q7.62,26.71,7.77,10.33A44.33,44.33,0,0,0,16,8.12,68.6,68.6,0,0,0,25,4a68.4,68.4,0,0,0,9,4.15,44.55,44.55,0,0,0,8.27,2.2Q42.37,26.82,34.84,37.21Z"/><path class="cls-1" d="M33.87,21.73,24.64,31a1.75,1.75,0,0,1-2.48,0L17.4,26.19a1.75,1.75,0,0,1,2.48-2.48l3.53,3.53,8-8a1.75,1.75,0,0,1,2.48,2.48Z"/></svg>