<?xml version="1.0" encoding="utf-8"?>
<!-- Generator: Adobe Illustrator 21.0.0, SVG Export Plug-In . SVG Version: 6.00 Build 0)  -->
<svg version="1.1" id="Warstwa_1" xmlns="http://www.w3.org/2000/svg" xmlns:xlink="http://www.w3.org/1999/xlink" x="0px" y="0px"
	 viewBox="0 0 225 40" style="enable-background:new 0 0 225 40;" xml:space="preserve">
<style type="text/css">
	.st0{fill:#FFFFFF;}
	.st1{fill-rule:evenodd;clip-rule:evenodd;fill:#4F4F4E;}
	.st2{fill-rule:evenodd;clip-rule:evenodd;fill:#414C2B;}
	.st3{fill-rule:evenodd;clip-rule:evenodd;fill:#808421;}
	.st4{fill-rule:evenodd;clip-rule:evenodd;fill:#DBD208;}
	.st5{fill-rule:evenodd;clip-rule:evenodd;fill:#BAB30B;}
</style>
<path class="st0" d="M40.3,8.8L40.3,8.8H40h-0.2V6.5h0.4h0.4L41,8.3l0.4-1.9h0.4h0.4v2.4h-0.2h-0.2v-2h0l-0.4,2H41h-0.2l-0.4-2h0
	V8.8z M38.3,8.8V6.9h-0.7V6.7V6.5h1.9v0.2v0.2h-0.7v1.9h-0.2H38.3z"/>
<path class="st1" d="M68.6,13.4c-0.4-0.4-1-0.5-1.5-0.5c-0.6,0-1.1,0.2-1.5,0.5c-0.4,0.3-0.6,0.7-0.6,1.2v11.3
	c0,0.5,0.2,0.9,0.6,1.2c0.5,0.4,1,0.5,1.5,0.5c0.6,0,1.1-0.1,1.5-0.5c0.4-0.3,0.6-0.7,0.6-1.2V14.6C69.2,14.1,69,13.7,68.6,13.4
	 M126.1,23.7l-1.5-8.1l-1.5,8.1H126.1z M214.3,13.2h-4.4V8.9H223v4.3h-4.4v18.5h-4.4V13.2z M184.6,31.9c-1.7,0-3.3-0.5-4.6-1.6
	c-1.2-1-1.9-2.2-1.9-3.8V8.9h4.3v17c0,0.5,0.2,0.9,0.6,1.2c0.4,0.4,1,0.5,1.5,0.5c0.6,0,1.1-0.1,1.5-0.5c0.4-0.3,0.6-0.7,0.6-1.2
	v-17h4.5v17.7c0,1.6-0.7,2.9-1.9,3.8C187.8,31.5,186.2,31.9,184.6,31.9z M172.4,21.9l2.8,8.9v0.9h-4.7L167,19.2h1
	c0.6,0,1.1-0.1,1.5-0.5c0.4-0.3,0.6-0.7,0.6-1.2V15c0-1.4-1-1.7-2.1-1.7h-2.2v18.5h-4.4V8.9h6.5c1.7,0,3.7,0.3,5.1,1.6
	c1.1,1,1.4,2.4,1.4,3.8v3.8C174.4,19.7,173.6,21,172.4,21.9z M149,13.2h-4.4V8.9h13.1v4.3h-4.4v18.5H149V13.2z M139.3,27.4h5.3v4.3
	h-9.7V8.9h4.4V27.4z M104.1,30.4c-1.2-1-1.9-2.2-1.9-3.8V14c0-1.6,0.7-2.9,1.9-3.8c1.3-1.1,2.9-1.6,4.6-1.6c1.7,0,3.3,0.5,4.6,1.6
	c1.2,1,1.9,2.2,1.9,3.8v1.8h-4.5v-1.2c0-0.5-0.2-0.9-0.6-1.2c-0.4-0.4-1-0.5-1.5-0.5c-0.6,0-1.1,0.1-1.5,0.5
	c-0.4,0.3-0.6,0.7-0.6,1.2v11.3c0,0.5,0.2,0.9,0.6,1.2c0.4,0.4,1,0.5,1.5,0.5c0.6,0,1.1-0.1,1.5-0.5c0.4-0.3,0.6-0.7,0.6-1.2v-2.1
	h4.5v2.8c0,1.6-0.7,2.9-1.9,3.8c-1.3,1.1-2.9,1.6-4.6,1.6C107,32,105.4,31.5,104.1,30.4z M98.5,31.7h-4.4V8.9h4.4V31.7z M62.6,30.4
	c-1.2-1-1.9-2.2-1.9-3.8V14c0-1.6,0.7-2.9,1.9-3.8C64,9,65.5,8.6,67.2,8.6c1.7,0,3.3,0.5,4.6,1.6c1.2,1,1.9,2.2,1.9,3.8v12.6
	c0,1.6-0.7,2.9-1.9,3.8c-1.3,1.1-2.9,1.6-4.6,1.6C65.5,32,63.9,31.5,62.6,30.4z M203.3,23.7l-8.6-3.9V14c0-1.6,0.7-2.9,1.9-3.8
	c1.3-1.1,2.9-1.6,4.6-1.6c1.7,0,3.3,0.5,4.6,1.6c1.2,1,1.9,2.2,1.9,3.8v1.8h-4.3v-1.1c0-0.5-0.2-0.9-0.6-1.2c-0.4-0.4-1-0.5-1.5-0.5
	c-0.6,0-1.1,0.1-1.5,0.5c-0.4,0.3-0.6,0.7-0.6,1.2c0,0.7,0,1.5,0,2.2l8.6,3.9l0,5.8c0,1.6-0.7,2.9-1.9,3.8c-1.3,1.1-2.9,1.6-4.6,1.6
	c-1.7,0-3.3-0.5-4.6-1.6c-1.2-1-1.9-2.2-1.9-3.8v-1.8h4.3v1.1c0,0.5,0.2,0.9,0.6,1.2c0.4,0.4,1,0.5,1.5,0.5c0.6,0,1.1-0.1,1.5-0.5
	c0.4-0.3,0.6-0.7,0.6-1.2C203.3,25.1,203.3,24.4,203.3,23.7z M86,23.7l-2.2-1v-4.9l2.1,0.9l0,0l4.6,2.1v5.8c0,1.6-0.7,2.9-1.9,3.8
	c-1.3,1.1-2.9,1.6-4.6,1.6c-1.7,0-3.3-0.5-4.6-1.6c-1.2-1-1.9-2.2-1.9-3.8V14c0-1.6,0.7-2.9,1.9-3.8c1.3-1.1,2.9-1.6,4.6-1.6
	c1.7,0,3.3,0.5,4.6,1.6c1.2,1,1.9,2.2,1.9,3.8v1.8H86v-1.2c0-0.5-0.2-0.9-0.6-1.2c-0.4-0.4-1-0.5-1.5-0.5c-0.6,0-1.1,0.1-1.5,0.5
	c-0.4,0.3-0.6,0.7-0.6,1.2v11.3c0,0.5,0.2,0.9,0.6,1.2c0.4,0.4,1,0.5,1.5,0.5c0.6,0,1.1-0.1,1.5-0.5c0.4-0.3,0.6-0.7,0.6-1.2V23.7z
	 M122.4,28l-0.7,3.6h-4.5v-0.9l4.6-22h5.8l4.5,22v0.9h-4.5l-0.7-3.6H122.4z M50.9,27.4h6.2v4.3H46.5V8.9h4.4V27.4z"/>
<path class="st2" d="M1.6,3.5l3.2,30.3c4.6,1.5,9.3,3,13.9,4.5c4.7-1.5,9.3-3,14-4.4L36,3.5l-2.5,3l-14.7,4.1L4.1,6.5L1.6,3.5z"/>
<path class="st3" d="M18.8,14.2c0-0.9,0-1.9,0-2.8c2.4-0.8,4.8-1.5,7.3-2.3c2.4-0.8,4.9-1.5,7.4-2.3C33.3,7.9,33.2,9,33,10.2
	c-2.4,0.7-4.8,1.3-7.1,2C23.5,12.9,21.1,13.5,18.8,14.2 M18.8,38.2c0-3,0-6,0-9s0-6,0-9c1.7-0.5,3.3-1,5-1.4c-0.1,2-0.2,4-0.3,6
	c-0.1,2-0.2,4-0.3,6c1.5-0.5,3.1-0.9,4.6-1.4c0.2-2,0.4-4,0.6-6.1c0.2-2,0.4-4,0.6-6.1c1.8-0.5,3.7-1,5.5-1.6c-0.3,3-0.6,6-0.9,9
	l-0.9,9.1L18.8,38.2z"/>
<path class="st4" d="M7.9,11.1c0.3,3,0.6,6,0.9,9c0.3,3,0.6,6,0.9,9c1.5,0.5,3.1,0.9,4.6,1.4c1.5,0.5,3,0.9,4.6,1.4
	c0-1.9,0-3.8,0-5.7c-1.6-0.5-3.3-1-4.9-1.5c-0.1-2-0.2-4-0.3-6c-0.1-2-0.2-4-0.3-6C11.5,12.1,9.7,11.6,7.9,11.1 M27.9,29.1
	c0.2-2,0.4-4,0.6-6.1c0.2-2,0.4-4,0.6-6.1c1.1-0.3,2.2-0.6,3.3-0.9c-0.3,2.6-0.6,5.3-0.8,7.9c-0.3,2.6-0.5,5.3-0.8,7.9
	c-2,0.6-4,1.2-6,1.8c-2,0.6-4,1.2-6,1.8c-2-0.6-4-1.2-6-1.8c-2-0.6-4-1.2-6-1.8c-0.4-4.2-0.9-8.4-1.3-12.7C5,14.9,4.6,10.7,4.1,6.5
	C6.6,7.2,9,7.8,11.5,8.5c2.4,0.7,4.9,1.4,7.3,2.1c2.4-0.7,4.9-1.4,7.3-2.1c2.5-0.7,4.9-1.4,7.4-2.1c-0.2,1.2-0.3,2.5-0.5,3.7
	c-2.4,0.7-4.8,1.3-7.2,2c-2.4,0.7-4.7,1.3-7.1,2c0,1.9,0,3.8,0,5.7c1.7-0.5,3.4-1,5.1-1.4c-0.1,2-0.2,4-0.3,6c-0.1,2-0.2,4-0.3,6
	C24.8,30,26.4,29.5,27.9,29.1z M1.6,3.5c0.6,5,1.2,10.1,1.7,15.1c0.6,5,1.1,10.1,1.6,15.1c2.3,0.7,4.6,1.4,7,2.1
	c2.3,0.7,4.6,1.4,6.9,2.1c2.3-0.7,4.6-1.4,6.9-2.1c2.3-0.7,4.6-1.4,7-2.1c0.5-5,1.1-10.1,1.6-15.1c0.6-5,1.1-10.1,1.7-15.1
	c-1,0.3-1.9,0.5-2.9,0.8c-9.6,0-19.2,0-28.8,0C3.4,4,2.5,3.7,1.6,3.5z"/>
<path class="st5" d="M7.9,11.4c0.3,3,0.6,5.9,0.9,8.9c0.3,2.9,0.6,5.9,0.8,8.8c1.5,0.5,3.1,0.9,4.6,1.4c1.5,0.5,3,0.9,4.6,1.4
	c0-1.8,0-3.6,0-5.4c-1.6-0.5-3.3-1-4.9-1.5c-0.1-2-0.2-4-0.3-6c-0.1-2-0.2-4-0.3-6C11.5,12.4,9.7,11.9,7.9,11.4 M1.6,3.5
	c0.6,5,1.2,10.1,1.7,15.1c0.6,5,1.1,10.1,1.6,15.1c2.3,0.7,4.6,1.4,7,2.1c2.3,0.7,4.6,1.4,6.9,2.1c0-0.6,0-1.1,0-1.7
	c-2-0.7-4-1.5-6-2.2c-2-0.7-4-1.5-6-2.2c-0.4-4.2-0.9-8.4-1.3-12.7C5,14.9,4.6,10.7,4.1,6.5C6.6,7.2,9,7.8,11.5,8.5
	c2.4,0.7,4.9,1.4,7.3,2.1V5L4.4,4.5L1.6,3.5z"/>
</svg>
